<svg width="30" height="30" viewBox="0 0 30 30" fill="none" xmlns="http://www.w3.org/2000/svg">
<path fill-rule="evenodd" clip-rule="evenodd" d="M0 26.4568C0 27.2659 0.321416 28.0418 0.893541 28.614C1.46567 29.1861 2.24163 29.5075 3.05074 29.5075H25.4228C26.2319 29.5075 27.0079 29.1861 27.58 28.614C28.1522 28.0418 28.4736 27.2659 28.4736 26.4568V14.2538C28.4736 13.9841 28.3664 13.7254 28.1757 13.5347C27.985 13.344 27.7264 13.2369 27.4567 13.2369C27.187 13.2369 26.9283 13.344 26.7376 13.5347C26.5469 13.7254 26.4397 13.9841 26.4397 14.2538V26.4568C26.4397 26.7265 26.3326 26.9851 26.1419 27.1758C25.9512 27.3665 25.6925 27.4737 25.4228 27.4737H3.05074C2.78104 27.4737 2.52238 27.3665 2.33167 27.1758C2.14097 26.9851 2.03383 26.7265 2.03383 26.4568V4.08467C2.03383 3.81497 2.14097 3.55631 2.33167 3.36561C2.52238 3.1749 2.78104 3.06776 3.05074 3.06776H16.2706C16.5403 3.06776 16.799 2.96062 16.9897 2.76991C17.1804 2.5792 17.2875 2.32055 17.2875 2.05085C17.2875 1.78114 17.1804 1.52249 16.9897 1.33178C16.799 1.14107 16.5403 1.03393 16.2706 1.03393H3.05074C2.24163 1.03393 1.46567 1.35535 0.893541 1.92747C0.321416 2.4996 0 3.27557 0 4.08467V26.4568Z" fill="#5E367D"/>
<path d="M24.4542 0.957176L29.0429 5.54578L25.5448 9.04536L20.9562 4.45675L24.4542 0.957176ZM7.64771 22.3523H12.2363L23.382 11.2066L18.7934 6.61799L7.64771 17.7637V22.3523Z" fill="#5E367D"/>
</svg>
