<svg width="188" height="113" viewBox="0 0 188 113" fill="none" xmlns="http://www.w3.org/2000/svg">
<path d="M188 49.9982C188.017 46.9346 187.12 43.9092 185.379 41.1567C183.638 38.4042 181.099 35.9984 177.961 34.1261C178.009 33.6629 178.033 33.1958 178.033 32.7245C178.033 22.4925 167.592 14.1994 154.711 14.1994C153.897 14.1994 153.094 14.2317 152.305 14.2963C147.411 7.69519 138.371 3.26301 128.028 3.26301C121.918 3.26301 116.265 4.80738 111.65 7.43134C105.822 2.8394 97.7975 0 88.9333 0C74.5012 0 62.2781 7.53059 58.1609 17.9175C53.187 15.1733 47.2276 13.6982 41.1155 13.6984C24.5528 13.6984 11.1327 24.3613 11.1327 37.5126C11.1327 41.3952 12.3046 45.0577 14.3757 48.2941C5.67446 53.1934 0 61.2493 0 70.363C0 85.291 15.2311 97.3942 34.028 97.3942C40.9401 97.3942 47.3665 95.7554 52.7371 92.9451C55.6417 104.383 68.3598 113 83.6192 113C94.9743 113 104.923 108.227 110.462 101.074C112.397 102.618 114.714 103.846 117.275 104.686C119.836 105.525 122.589 105.959 125.371 105.961C136.419 105.961 145.484 99.2218 146.42 90.6382C149.074 91.399 151.881 91.7884 154.711 91.788C168.2 91.788 179.136 83.1028 179.136 72.3915C179.136 70.1451 178.65 67.9883 177.763 65.9816C180.958 64.1137 183.546 61.697 185.322 58.9229C187.099 56.1488 188.016 53.0933 188 49.9982Z" fill="#5E367D"/>
<path d="M25.75 40.6196V70.7609C24.475 70.1196 22.8812 69.4783 20.9687 69.4783C16.5063 69.4783 13 72.3641 13 75.8913C13 79.4185 16.5063 82.3043 20.9687 82.3043C25.4312 82.3043 28.9375 79.4185 28.9375 75.8913L27.2403 53.7988C27.2403 46.1031 31.1687 53.125 39.775 45.495C48.3812 37.865 48.4399 41.8404 53.0714 42.5291L51.25 61.462C49.975 60.5 48.3812 59.8587 46.4687 59.8587C42.0063 59.8587 38.5 62.7446 38.5 66.2717C38.5 69.7989 42.0063 72.6848 46.4687 72.6848C50.9312 72.6848 54.4375 69.7989 54.4375 66.2717V31C54.4375 31 45.8312 36.4691 38.5 43.5235C31.1688 50.5778 25.75 40.6196 25.75 40.6196Z" fill="#D0A6DB"/>
<path d="M64.733 65.507C64.421 65.507 64.07 65.442 63.68 65.312C63.29 65.208 62.965 65.039 62.705 64.805C62.471 64.571 62.354 64.272 62.354 63.908C62.354 63.778 62.38 63.245 62.432 62.309C62.484 61.347 62.549 60.138 62.627 58.682C62.731 57.226 62.835 55.653 62.939 53.963C63.043 52.247 63.134 50.57 63.212 48.932C63.316 47.294 63.394 45.825 63.446 44.525C63.498 43.225 63.524 42.25 63.524 41.6C63.524 41.444 63.628 41.249 63.836 41.015C64.044 40.781 64.291 40.56 64.577 40.352C64.863 40.118 65.149 39.936 65.435 39.806C65.721 39.65 65.955 39.572 66.137 39.572C66.241 39.572 66.358 39.624 66.488 39.728C66.644 39.806 66.761 39.91 66.839 40.04C67.073 40.326 67.515 40.859 68.165 41.639C68.841 42.419 69.634 43.342 70.544 44.408C71.48 45.474 72.494 46.618 73.586 47.84C74.704 49.062 75.809 50.284 76.901 51.506C78.019 52.728 79.072 53.885 80.06 54.977C81.074 56.069 81.958 57.018 82.712 57.824C83.466 58.63 84.038 59.202 84.428 59.54C84.428 59.436 84.454 59.033 84.506 58.331C84.558 57.629 84.623 56.693 84.701 55.523C84.779 54.353 84.844 52.988 84.896 51.428C84.974 49.868 85.026 48.152 85.052 46.28C85.104 44.382 85.13 42.367 85.13 40.235C85.13 39.975 85.156 39.806 85.208 39.728C85.286 39.624 85.455 39.572 85.715 39.572C86.079 39.572 86.443 39.624 86.807 39.728C87.171 39.832 87.483 40.001 87.743 40.235C88.003 40.469 88.133 40.768 88.133 41.132C88.133 41.262 88.107 41.808 88.055 42.77C88.003 43.706 87.925 44.915 87.821 46.397C87.717 47.853 87.613 49.426 87.509 51.116C87.431 52.806 87.34 54.47 87.236 56.108C87.158 57.746 87.093 59.215 87.041 60.515C86.989 61.815 86.963 62.79 86.963 63.44C86.963 63.596 86.846 63.791 86.612 64.025C86.404 64.259 86.144 64.493 85.832 64.727C85.546 64.961 85.26 65.143 84.974 65.273C84.714 65.429 84.506 65.507 84.35 65.507C84.246 65.507 84.129 65.455 83.999 65.351C83.869 65.273 83.739 65.169 83.609 65.039C83.089 64.467 82.322 63.635 81.308 62.543C80.32 61.451 79.189 60.216 77.915 58.838C76.667 57.46 75.393 56.056 74.093 54.626C72.793 53.17 71.571 51.805 70.427 50.531C69.283 49.257 68.308 48.165 67.502 47.255C66.722 46.345 66.228 45.747 66.02 45.461C65.994 45.643 65.968 46.124 65.942 46.904C65.916 47.658 65.864 48.607 65.786 49.751C65.734 50.895 65.682 52.143 65.63 53.495C65.578 54.847 65.526 56.225 65.474 57.629C65.448 59.007 65.409 60.32 65.357 61.568C65.331 62.816 65.318 63.908 65.318 64.844C65.318 65.104 65.279 65.273 65.201 65.351C65.149 65.455 64.993 65.507 64.733 65.507ZM100.687 65.507C99.465 65.507 98.334 65.377 97.294 65.117C96.28 64.857 95.383 64.415 94.603 63.791C93.849 63.141 93.251 62.231 92.809 61.061C92.393 59.865 92.185 58.331 92.185 56.459C92.185 53.495 92.601 51.142 93.433 49.4C94.265 47.658 95.383 46.423 96.787 45.695C98.217 44.941 99.777 44.564 101.467 44.564C102.689 44.564 103.807 44.694 104.821 44.954C105.861 45.214 106.758 45.669 107.512 46.319C108.292 46.943 108.89 47.853 109.306 49.049C109.748 50.219 109.969 51.74 109.969 53.612C109.969 56.576 109.553 58.929 108.721 60.671C107.889 62.413 106.771 63.661 105.367 64.415C103.989 65.143 102.429 65.507 100.687 65.507ZM100.531 63.752C102.221 63.752 103.534 62.894 104.47 61.178C105.406 59.436 105.874 56.914 105.874 53.612C105.874 51.818 105.731 50.388 105.445 49.322C105.159 48.256 104.704 47.502 104.08 47.06C103.456 46.592 102.624 46.358 101.584 46.358C99.92 46.358 98.607 47.229 97.645 48.971C96.709 50.687 96.241 53.196 96.241 56.498C96.241 58.266 96.384 59.683 96.67 60.749C96.956 61.815 97.411 62.582 98.035 63.05C98.685 63.518 99.517 63.752 100.531 63.752ZM105.543 47.372C105.361 47.372 105.075 47.242 104.685 46.982C104.295 46.696 103.801 46.384 103.203 46.046C103.151 45.864 103.034 45.708 102.852 45.578C102.67 45.422 102.553 45.305 102.501 45.227C102.423 45.123 102.475 45.071 102.657 45.071C103.619 45.149 104.464 45.227 105.192 45.305C105.92 45.383 106.713 45.448 107.571 45.5C108.403 45.552 109.43 45.578 110.652 45.578C110.86 45.578 111.276 45.578 111.9 45.578C112.498 45.578 113.161 45.578 113.889 45.578C114.617 45.552 115.267 45.539 115.839 45.539C116.411 45.539 116.762 45.539 116.892 45.539C117.178 45.539 117.438 45.63 117.672 45.812C117.906 45.968 117.997 46.267 117.945 46.709C117.945 46.969 117.906 47.151 117.828 47.255C117.776 47.333 117.633 47.372 117.399 47.372C117.191 47.372 116.827 47.372 116.307 47.372C115.683 47.372 114.89 47.372 113.928 47.372C112.992 47.372 111.991 47.372 110.925 47.372C109.859 47.372 108.858 47.372 107.922 47.372C106.96 47.372 106.167 47.372 105.543 47.372ZM118.998 65.507C117.672 65.507 116.723 65.065 116.151 64.181C115.605 63.271 115.332 61.789 115.332 59.735C115.332 58.565 115.358 57.343 115.41 56.069C115.462 54.795 115.527 53.586 115.605 52.442C115.709 51.298 115.787 50.31 115.839 49.478C115.917 48.646 115.969 48.087 115.995 47.801H113.733C113.603 47.801 113.512 47.762 113.46 47.684C113.408 47.606 113.382 47.463 113.382 47.255C113.382 46.787 113.447 46.384 113.577 46.046C113.707 45.708 113.928 45.539 114.24 45.539H116.073C116.099 45.123 116.125 44.629 116.151 44.057C116.203 43.459 116.255 42.874 116.307 42.302C116.359 41.704 116.398 41.21 116.424 40.82C116.476 40.404 116.502 40.17 116.502 40.118C116.502 39.936 116.541 39.806 116.619 39.728C116.697 39.65 116.866 39.611 117.126 39.611C117.672 39.611 118.218 39.676 118.764 39.806C119.31 39.936 119.765 40.131 120.129 40.391C120.519 40.651 120.714 40.989 120.714 41.405C120.714 41.483 120.688 41.756 120.636 42.224C120.584 42.692 120.519 43.225 120.441 43.823C120.389 44.421 120.324 44.993 120.246 45.539H126.135C126.265 45.539 126.356 45.578 126.408 45.656C126.46 45.708 126.486 45.851 126.486 46.085C126.486 46.527 126.421 46.93 126.291 47.294C126.161 47.632 125.927 47.801 125.589 47.801H120.129C120.077 48.061 120.012 48.581 119.934 49.361C119.856 50.115 119.778 51.025 119.7 52.091C119.622 53.131 119.544 54.236 119.466 55.406C119.414 56.55 119.388 57.681 119.388 58.799C119.388 59.865 119.44 60.697 119.544 61.295C119.648 61.867 119.83 62.27 120.09 62.504C120.35 62.712 120.675 62.816 121.065 62.816C121.481 62.816 122.001 62.686 122.625 62.426C123.249 62.166 123.834 61.789 124.38 61.295C124.64 61.087 124.835 60.944 124.965 60.866C125.121 60.762 125.238 60.71 125.316 60.71C125.446 60.71 125.55 60.827 125.628 61.061C125.706 61.295 125.745 61.542 125.745 61.802C125.745 62.14 125.667 62.4 125.511 62.582C124.835 63.258 124.12 63.817 123.366 64.259C122.638 64.675 121.897 64.987 121.143 65.195C120.415 65.403 119.7 65.507 118.998 65.507ZM124.859 47.801C124.677 47.801 124.586 47.697 124.586 47.489C124.586 47.255 124.612 46.995 124.664 46.709C124.716 46.397 124.807 46.124 124.937 45.89C125.067 45.656 125.236 45.539 125.444 45.539H133.907C134.115 45.539 134.219 45.643 134.219 45.851C134.219 46.059 134.154 46.319 134.024 46.631C133.92 46.943 133.764 47.216 133.556 47.45C133.348 47.684 133.127 47.801 132.893 47.801H124.859ZM131.723 65.507C131.619 65.507 131.411 65.455 131.099 65.351C130.813 65.247 130.501 65.104 130.163 64.922C129.851 64.714 129.565 64.506 129.305 64.298C129.071 64.064 128.915 63.843 128.837 63.635C128.759 63.297 128.72 62.738 128.72 61.958C128.72 61.464 128.733 60.788 128.759 59.93C128.785 59.046 128.824 58.071 128.876 57.005C128.954 55.939 129.071 54.886 129.227 53.846C129.383 52.78 129.591 51.805 129.851 50.921C130.111 50.011 130.436 49.283 130.826 48.737C131.762 47.437 132.828 46.423 134.024 45.695C135.22 44.941 136.572 44.564 138.08 44.564C138.574 44.564 139.289 44.603 140.225 44.681C141.161 44.759 142.24 44.876 143.462 45.032C144.684 45.188 145.945 45.396 147.245 45.656C147.297 45.656 147.349 45.682 147.401 45.734C147.453 45.76 147.479 45.838 147.479 45.968C147.479 46.384 147.414 46.722 147.284 46.982C147.154 47.242 147.037 47.372 146.933 47.372C146.933 47.45 146.907 47.788 146.855 48.386C146.829 48.958 146.79 49.712 146.738 50.648C146.686 51.584 146.634 52.598 146.582 53.69C146.53 54.756 146.478 55.835 146.426 56.927C146.4 58.019 146.387 59.007 146.387 59.891C146.387 60.749 146.426 61.295 146.504 61.529C146.582 61.763 146.725 61.88 146.933 61.88C147.089 61.88 147.336 61.737 147.674 61.451C148.012 61.139 148.376 60.775 148.766 60.359C149.182 59.917 149.559 59.488 149.897 59.072C150.235 58.656 150.482 58.357 150.638 58.175C150.742 58.071 150.807 57.993 150.833 57.941C150.885 57.889 150.937 57.863 150.989 57.863C151.093 57.863 151.223 58.006 151.379 58.292C151.561 58.552 151.652 58.838 151.652 59.15C151.652 59.254 151.639 59.358 151.613 59.462C151.587 59.566 151.535 59.67 151.457 59.774C151.171 60.164 150.768 60.684 150.248 61.334C149.728 61.958 149.156 62.595 148.532 63.245C147.908 63.869 147.297 64.402 146.699 64.844C146.127 65.286 145.633 65.507 145.217 65.507C145.087 65.507 144.866 65.455 144.554 65.351C144.268 65.247 143.956 65.104 143.618 64.922C143.306 64.714 143.02 64.506 142.76 64.298C142.526 64.064 142.383 63.843 142.331 63.635C142.279 63.453 142.24 63.232 142.214 62.972C142.214 62.686 142.214 62.348 142.214 61.958C142.214 61.464 142.214 60.84 142.214 60.086C142.24 59.332 142.279 58.526 142.331 57.668C142.383 56.784 142.435 55.913 142.487 55.055C142.539 54.197 142.578 53.417 142.604 52.715C142.162 53.651 141.59 54.691 140.888 55.835C140.186 56.979 139.406 58.123 138.548 59.267C137.69 60.385 136.819 61.425 135.935 62.387C135.077 63.323 134.284 64.077 133.556 64.649C132.828 65.221 132.217 65.507 131.723 65.507ZM133.439 61.88C133.621 61.88 133.946 61.659 134.414 61.217C134.908 60.749 135.48 60.125 136.13 59.345C136.806 58.565 137.495 57.668 138.197 56.654C138.899 55.64 139.575 54.587 140.225 53.495C140.875 52.403 141.447 51.324 141.941 50.258C142.435 49.166 142.773 48.152 142.955 47.216C141.733 46.956 140.68 46.787 139.796 46.709C138.912 46.605 138.158 46.553 137.534 46.553C136.078 46.553 134.934 47.723 134.102 50.063C133.296 52.377 132.893 55.653 132.893 59.891C132.893 60.775 132.932 61.334 133.01 61.568C133.088 61.776 133.231 61.88 133.439 61.88ZM148.237 63.479C148.107 63.609 147.964 63.635 147.808 63.557C147.652 63.453 147.522 63.284 147.418 63.05C147.314 62.816 147.249 62.595 147.223 62.387C147.171 62.153 147.223 61.984 147.379 61.88C148.263 61.048 149.121 60.112 149.953 59.072C150.785 58.006 151.526 56.888 152.176 55.718C152.826 54.548 153.346 53.404 153.736 52.286C154.126 51.142 154.347 50.089 154.399 49.127C154.451 48.841 154.542 48.776 154.672 48.932C154.802 49.088 154.919 49.387 155.023 49.829C155.101 50.089 155.166 50.362 155.218 50.648C155.27 50.934 155.283 51.259 155.257 51.623C155.257 52.143 155.075 52.884 154.711 53.846C154.373 54.782 153.879 55.822 153.229 56.966C152.605 58.11 151.877 59.267 151.045 60.437C150.187 61.581 149.251 62.595 148.237 63.479ZM159.001 65.507C158.143 65.507 157.246 65.351 156.31 65.039C155.374 64.727 154.49 64.233 153.658 63.557C153.476 63.453 153.359 63.284 153.307 63.05C153.255 62.816 153.229 62.621 153.229 62.465C153.229 62.127 153.281 61.776 153.385 61.412C153.489 61.048 153.632 60.866 153.814 60.866C153.918 60.866 154.113 60.996 154.399 61.256C154.711 61.49 155.101 61.763 155.569 62.075C156.063 62.387 156.648 62.673 157.324 62.933C158 63.167 158.767 63.284 159.625 63.284C160.093 63.284 160.574 63.193 161.068 63.011C161.562 62.829 161.978 62.543 162.316 62.153C162.68 61.763 162.862 61.256 162.862 60.632C162.862 60.086 162.719 59.631 162.433 59.267C162.173 58.877 161.809 58.539 161.341 58.253C160.873 57.941 160.34 57.616 159.742 57.278C159.144 56.94 158.507 56.524 157.831 56.03C156.583 55.224 155.673 54.392 155.101 53.534C154.529 52.65 154.243 51.584 154.243 50.336C154.243 49.504 154.451 48.646 154.867 47.762C155.283 46.852 155.972 46.098 156.934 45.5C157.896 44.876 159.17 44.564 160.756 44.564C161.77 44.564 162.732 44.733 163.642 45.071C164.578 45.409 165.371 45.89 166.021 46.514C166.203 46.618 166.307 46.761 166.333 46.943C166.385 47.125 166.411 47.307 166.411 47.489C166.411 47.905 166.333 48.282 166.177 48.62C166.021 48.932 165.852 49.088 165.67 49.088C165.592 49.088 165.41 48.971 165.124 48.737C164.838 48.477 164.461 48.204 163.993 47.918C163.551 47.606 163.005 47.333 162.355 47.099C161.731 46.865 161.016 46.748 160.21 46.748C159.872 46.748 159.495 46.826 159.079 46.982C158.689 47.138 158.351 47.398 158.065 47.762C157.805 48.126 157.675 48.607 157.675 49.205C157.675 49.699 157.805 50.128 158.065 50.492C158.351 50.856 158.741 51.207 159.235 51.545C159.729 51.883 160.314 52.26 160.99 52.676C161.666 53.066 162.42 53.56 163.252 54.158C164.37 54.886 165.163 55.627 165.631 56.381C166.099 57.135 166.333 58.058 166.333 59.15C166.333 60.424 165.969 61.542 165.241 62.504C164.513 63.466 163.59 64.207 162.472 64.727C161.354 65.247 160.197 65.507 159.001 65.507Z" fill="#D0A6DB"/>
</svg>
